# xmcd CD database file
#
# Track frame offsets:
#	150
#	49178
#	69277
#	82143
#	100564
#	110683
#	121700
#	154923
#	168402
#	179674
#	197724
#	218528
#	244864
#	266170
#	282431
#
# Disc length: 3995 seconds
#
# Revision: 6
# Processed by: cddbd v1.5.2PL0 Copyright (c) Steve Scherf et al.
# Submitted via: CdAid (MTCDDB.DLL V2003.12.21)
#
DISCID=d80f990f
DTITLE=Elbe-Saiten-Quartett - Overseas 2
DYEAR=2009
DGENRE=Jazz
TTITLE0=Elassomorph
TTITLE1=Milonga triste
TTITLE2=Nuestro
TTITLE3=Arrabiata
TTITLE4=In Hamburg
TTITLE5=Jamparale
TTITLE6=Along the Edge
TTITLE7=Suite de Lejos: Guerrera
TTITLE8=Suite de Lejos: Chiquitito
TTITLE9=Suite de Lejos: De Lejos
TTITLE10=Prelude for Piano No. 2
TTITLE11=Spanischer Kanon
TTITLE12=La Paloma
TTITLE13=Quatuor en passant op. 13
TTITLE14=Moon River
EXTD=YEAR: 2009 ID3G:   8
EXTT0=
EXTT1=
EXTT2=
EXTT3=
EXTT4=
EXTT5=
EXTT6=
EXTT7=
EXTT8=
EXTT9=
EXTT10=
EXTT11=
EXTT12=
EXTT13=
EXTT14=
PLAYORDER=
